<?xml version="1.0" encoding="utf-8"?>
<!-- Generator: Adobe Illustrator 15.0.0, SVG Export Plug-In . SVG Version: 6.00 Build 0)  -->
<!DOCTYPE svg PUBLIC "-//W3C//DTD SVG 1.1//EN" "http://www.w3.org/Graphics/SVG/1.1/DTD/svg11.dtd">
<svg version="1.1" id="Layer_1" xmlns="http://www.w3.org/2000/svg" xmlns:xlink="http://www.w3.org/1999/xlink" x="0px" y="0px"
	 width="46px" height="44px" viewBox="0 0 46 44" enable-background="new 0 0 46 44" xml:space="preserve">
<g>
	<path fill="#B81F37" d="M41.553,8.012H22.498l0.034-0.021c1.012-0.607,1.809-1.964,1.982-3.375
		c0.159-1.287-0.209-2.449-1.037-3.277c-0.902-0.902-2.152-1.375-3.512-1.337c-1.226,0.042-2.403,0.485-3.354,1.261
		c-1.131,0.946-2.543,2.823-3.796,4.983c-1.253-2.16-2.666-4.037-3.797-4.981c-0.949-0.776-2.126-1.22-3.353-1.263
		c-1.357-0.039-2.606,0.435-3.51,1.335C1.328,2.167,0.961,3.33,1.119,4.615C1.293,6.026,2.09,7.383,3.102,7.991
		c0.083,0.049,0.17,0.101,0.263,0.153C1.388,8.644,0.002,10.42,0,12.459v20.357c0.002,2.455,1.992,4.444,4.446,4.447h37.107
		c2.455-0.003,4.445-1.992,4.447-4.447V12.459C45.998,10.005,44.008,8.016,41.553,8.012 M18.167,3.13
		c0.557-0.449,1.249-0.696,1.965-0.701c0.603,0,1.19,0.19,1.628,0.626c0.364,0.365,0.389,0.89,0.342,1.264
		c-0.095,0.774-0.538,1.421-0.821,1.59c-1.678,0.993-3.508,1.704-5.417,2.102h-1.263C15.884,5.686,17.274,3.875,18.167,3.13
		 M3.871,3.056C4.309,2.62,4.896,2.43,5.5,2.43C6.215,2.434,6.908,2.681,7.464,3.13c0.892,0.744,2.282,2.555,3.564,4.882H9.767
		C7.858,7.614,6.028,6.903,4.351,5.91C4.067,5.741,3.623,5.094,3.528,4.32C3.482,3.946,3.505,3.423,3.871,3.056 M4.446,10.439h5.082
		c0.298,0.061,0.604,0.11,0.916,0.158c-1.833,2.69-4.926,5.797-4.963,5.835l-3.053,3.05v-7.023
		C2.429,11.344,3.332,10.442,4.446,10.439 M2.427,32.816v-9.9l4.769-4.769c0.172-0.173,3.683-3.7,5.62-6.749
		c1.937,3.049,5.447,6.576,5.62,6.749l1.716-1.717c-0.038-0.038-3.129-3.143-4.963-5.835c0.312-0.045,0.618-0.097,0.916-0.156
		h25.449c1.115,0.001,2.02,0.906,2.02,2.021v10.646l-11.729,11.73H4.446C3.332,34.835,2.429,33.932,2.427,32.816 M41.553,34.836
		h-6.276l8.296-8.297v6.277C43.571,33.932,42.668,34.835,41.553,34.836"/>
</g>
</svg>
