<?xml version="1.0" encoding="utf-8"?>
<!-- Generator: Adobe Illustrator 15.0.0, SVG Export Plug-In . SVG Version: 6.00 Build 0)  -->
<!DOCTYPE svg PUBLIC "-//W3C//DTD SVG 1.1//EN" "http://www.w3.org/Graphics/SVG/1.1/DTD/svg11.dtd">
<svg version="1.1" id="Layer_1" xmlns="http://www.w3.org/2000/svg" xmlns:xlink="http://www.w3.org/1999/xlink" x="0px" y="0px"
	 width="43px" height="43px" viewBox="0 0 43 43" enable-background="new 0 0 43 43" xml:space="preserve">
<path fill="#B81F37" d="M42.559,39.464c0.166,0.165,0.248,0.387,0.248,0.662c0,0.276-0.082,0.524-0.248,0.745l-1.904,1.822
	c-0.221,0.221-0.47,0.331-0.746,0.331c-0.275,0-0.496-0.11-0.662-0.331l-10.103-10.02c-0.166-0.221-0.248-0.441-0.248-0.663v-1.159
	c-1.546,1.325-3.285,2.36-5.218,3.105c-1.932,0.745-3.947,1.118-6.045,1.118c-3.146,0-6.031-0.772-8.653-2.319
	c-2.622-1.545-4.706-3.629-6.252-6.252c-1.546-2.622-2.319-5.507-2.319-8.653c0-3.147,0.773-6.031,2.319-8.654
	c1.546-2.622,3.63-4.706,6.252-6.252s5.507-2.319,8.653-2.319s6.031,0.773,8.654,2.319c2.622,1.546,4.706,3.63,6.252,6.252
	c1.545,2.623,2.318,5.507,2.318,8.654c0,2.098-0.373,4.113-1.118,6.045c-0.745,1.933-1.78,3.671-3.105,5.218h1.159
	c0.276,0,0.497,0.082,0.663,0.248L42.559,39.464z M17.633,31.1c2.374,0,4.582-0.593,6.625-1.78c2.043-1.187,3.657-2.802,4.845-4.845
	c1.187-2.042,1.78-4.25,1.78-6.624s-0.594-4.582-1.78-6.625c-1.188-2.042-2.802-3.657-4.845-4.844
	c-2.043-1.188-4.251-1.781-6.625-1.781c-2.373,0-4.582,0.593-6.625,1.781c-2.042,1.187-3.656,2.801-4.844,4.844
	c-1.188,2.043-1.781,4.251-1.781,6.625s0.594,4.582,1.781,6.624c1.188,2.043,2.802,3.658,4.844,4.845
	C13.051,30.507,15.26,31.1,17.633,31.1z"/>
</svg>
