<?xml version="1.0" encoding="utf-8"?>
<!-- Generator: Adobe Illustrator 15.0.0, SVG Export Plug-In . SVG Version: 6.00 Build 0)  -->
<!DOCTYPE svg PUBLIC "-//W3C//DTD SVG 1.1//EN" "http://www.w3.org/Graphics/SVG/1.1/DTD/svg11.dtd">
<svg version="1.1" id="Layer_1" xmlns="http://www.w3.org/2000/svg" xmlns:xlink="http://www.w3.org/1999/xlink" x="0px" y="0px"
	 width="527.04px" height="217px" viewBox="0 0 527.04 217" enable-background="new 0 0 527.04 217" xml:space="preserve">
<g id="Layer_1_1_" display="none">
	<g id="wYls4l_1_" display="inline">
	</g>
</g>
<g id="bg">
</g>
<g id="You_Can_Taste">
	<g>
		<path fill="#B81F37" d="M38.416,172.175c-4.287,7.796-7.586,14.459-9.898,19.995c-0.338,0.79-0.732,1.186-1.184,1.186
			c-0.338,0-0.762-0.197-1.27-0.592c-0.732-0.563-1.918-1.636-3.553-3.215c-0.677-0.789-1.015-1.635-1.015-2.537
			c0-0.621,0.14-1.324,0.423-2.115c2.03-5.301,4.596-10.967,7.698-17.004c-0.902-9.359-1.214-18.355-0.931-26.984
			c-0.113-1.521,0.362-2.283,1.425-2.283c0.672,0,1.72,0.338,3.146,1.016c1.425,0.676,2.445,1.269,3.061,1.775
			c1.118,0.902,1.762,2.426,1.93,4.566c0.169,2.652,0.424,6.826,0.764,12.521c8.146-7.982,16.122-14.75,23.928-20.298
			c0.621-0.565,1.159-0.851,1.612-0.851c0.905,0,1.358,1.215,1.358,3.644c0,2.203-1.13,4.349-3.385,6.438
			C52.937,156.191,44.9,164.438,38.416,172.175z"/>
		<path fill="#B81F37" d="M57.788,187.604c-2.483-2.48-3.723-5.555-3.723-9.221c0-2.086,0.367-4.427,1.101-7.021
			c1.466-5.131,4.342-10.771,8.628-16.918s8.684-10.799,13.197-13.959c2.48-1.746,4.82-2.621,7.021-2.621
			c1.748,0,3.469,0.537,5.16,1.605c2.538,1.581,4.582,3.301,6.133,5.161c1.55,1.861,2.326,4.54,2.326,8.036
			c0,1.636-0.169,3.355-0.507,5.16c-0.96,5.357-3.104,11.055-6.43,17.088c-4.116,7.559-8.938,13.057-14.466,16.496
			c-2.029,1.24-4.174,1.861-6.429,1.861c-1.636,0-3.299-0.312-4.991-0.933C62.383,191.439,60.042,189.859,57.788,187.604z
			 M70.73,163.41c-4.906,8.121-7.359,14.804-7.359,20.048c0,2.088,0.705,3.13,2.114,3.13c1.692,0,3.808-1.27,6.346-3.807
			c2.987-2.932,6.006-7.049,9.051-12.352c5.526-9.587,8.29-16.89,8.29-21.908c0-1.861-0.507-2.793-1.522-2.793
			c-1.636,0-4.09,1.664-7.359,4.992C76.849,154.273,73.662,158.503,70.73,163.41z"/>
		<path fill="#B81F37" d="M120.343,139.216c0.592,0.677,1.367,1.806,2.326,3.384c0.508,0.791,0.762,1.637,0.762,2.537
			c0,1.241-0.507,2.623-1.521,4.146c-4.853,7.273-8.855,14.27-12.014,20.979c-2.933,6.316-4.398,10.828-4.398,13.534
			c0,1.468,0.536,2.199,1.606,2.199c2.933,0,7.415-3.976,13.45-11.927c6.88-9.192,13.394-20.865,19.542-35.022
			c0.394-0.899,0.93-1.353,1.607-1.353c0.45,0,0.931,0.197,1.438,0.592c0.901,0.677,2.059,1.833,3.468,3.468
			c0.847,1.411,0.901,3.16,0.169,5.245c-5.471,16.188-13.111,29.523-22.925,40.014c-4.005,4.285-8.036,6.43-12.097,6.43
			c-1.522,0-3.159-0.312-4.907-0.933c-3.271-1.184-6.035-2.96-8.29-5.329c-1.579-1.691-2.369-3.945-2.369-6.767
			c0-1.917,0.368-4.285,1.101-7.106c1.07-4.004,3.608-9.529,7.613-16.58c4.229-7.443,8.262-13.224,12.098-17.342
			c0.731-0.789,1.325-1.184,1.776-1.184S119.751,138.539,120.343,139.216z"/>
	</g>
	<g>
		<path fill="#B81F37" d="M328.118,147.93h-0.764c-4.173,0.112-7.612-1.24-10.318-4.062c-0.453-0.45-0.678-0.931-0.678-1.438
			c0-0.789,0.509-1.324,1.522-1.607c3.776-1.014,8.29-1.86,13.534-2.537c4.851-0.562,8.769-0.817,11.76-0.762
			c4.567,0.113,8.007,1.664,10.32,4.652c0.562,0.732,0.846,1.326,0.846,1.775c0,0.734-0.649,1.214-1.946,1.438
			c-0.562,0.114-4.229,0.564-10.997,1.354c-0.227,0.45-0.479,0.874-0.761,1.269c-4.345,6.035-8.854,13.196-13.535,21.487
			c-4.851,8.517-8.601,15.987-11.251,22.416c-0.339,0.847-0.761,1.271-1.269,1.271c-0.339,0-0.763-0.199-1.27-0.594
			c-1.299-0.902-2.427-1.973-3.385-3.214c-0.732-0.901-1.1-1.804-1.1-2.707c0-0.563,0.14-1.212,0.424-1.944
			C313.369,173.786,319.658,161.521,328.118,147.93z"/>
		<path fill="#B81F37" d="M360.517,181.428c-5.921,0.621-11.956,1.664-18.103,3.131c-1.468,1.976-3.075,4.313-4.822,7.021
			c-0.677,1.071-1.27,1.606-1.776,1.606c-0.393,0-0.858-0.312-1.396-0.931c-0.535-0.621-1.197-1.522-1.988-2.707
			c-0.508-0.789-0.761-1.606-0.761-2.452c0-1.072,0.451-2.341,1.353-3.808c3.217-5.188,8.206-12.267,14.975-21.233
			c7.162-9.587,13.225-17.172,18.188-22.756c0.959-1.068,1.861-1.605,2.707-1.605c0.62,0,1.381,0.226,2.285,0.677
			c1.69,0.901,3.58,2.087,5.667,3.553c1.354,0.96,2.03,1.976,2.03,3.045c0,0.396-0.198,1.214-0.593,2.453
			c-5.527,16.863-9.107,31.244-10.743,43.144c-0.113,1.016-0.509,1.521-1.186,1.521c-0.282,0-0.647-0.084-1.1-0.253
			c-1.129-0.394-2.313-1.058-3.553-1.988c-1.241-0.931-1.776-2.382-1.607-4.356C360.094,185.376,360.234,184.021,360.517,181.428z
			 M349.097,175.252c5.021-0.73,9.276-1.238,12.774-1.521c1.576-8.346,3.438-15.705,5.583-22.08
			C361.645,158.812,355.526,166.682,349.097,175.252z"/>
		<path fill="#B81F37" d="M375.405,179.734c0.059-1.069,0.452-1.605,1.186-1.605c0.395,0,0.789,0.141,1.184,0.424
			c6.315,4.623,12.098,6.936,17.343,6.936c2.48,0,3.723-0.704,3.723-2.114c0-0.562-0.228-1.169-0.679-1.817
			c-0.45-0.648-2.172-2.298-5.159-4.949c-3.271-2.875-5.443-4.935-6.515-6.176c-1.805-2.086-2.706-4.285-2.706-6.599
			c0-1.974,0.677-4.03,2.03-6.175c4.85-7.783,11.616-13.789,20.302-18.02c2.255-1.127,4.229-1.69,5.921-1.69
			c1.579,0,3.073,0.452,4.484,1.353c2.932,1.807,5.074,3.668,6.43,5.584c0.731,1.071,1.1,2.199,1.1,3.385
			c0,0.959-0.253,2.059-0.762,3.299c-2.257,5.527-5.78,10.828-10.573,15.904c-0.622,0.676-1.215,1.014-1.776,1.014
			c-1.354,0-2.622-1.465-3.807-4.398c-0.17-0.395-0.255-0.816-0.255-1.27c0-0.846,0.339-1.916,1.016-3.215
			c1.297-2.199,2.564-4.426,3.807-6.683c1.748-3.046,2.623-5.019,2.623-5.922c0-0.45-0.228-0.676-0.677-0.676
			c-1.411,0-4.006,1.466-7.782,4.397c-3.949,3.104-6.853,6.119-8.714,9.051c-1.13,1.692-1.69,3.16-1.69,4.399
			c0,1.185,0.704,2.537,2.114,4.062c2.029,1.748,4.791,4.259,8.29,7.529c1.746,1.916,2.622,3.805,2.622,5.666
			c0,1.637-0.678,3.271-2.031,4.907c-3.608,4.397-7.951,6.599-13.026,6.599c-5.696,0-10.743-2.031-15.143-6.092
			C376.195,184.926,375.236,182.557,375.405,179.734z"/>
		<path fill="#B81F37" d="M440.965,147.93h-0.762c-4.175,0.112-7.613-1.24-10.319-4.062c-0.452-0.45-0.679-0.931-0.679-1.438
			c0-0.789,0.51-1.324,1.524-1.607c3.776-1.014,8.29-1.86,13.534-2.537c4.85-0.562,8.769-0.817,11.758-0.762
			c4.567,0.113,8.007,1.664,10.32,4.652c0.562,0.732,0.847,1.326,0.847,1.775c0,0.734-0.649,1.214-1.945,1.438
			c-0.564,0.114-4.229,0.564-10.998,1.354c-0.226,0.45-0.479,0.874-0.762,1.269c-4.343,6.035-8.854,13.196-13.535,21.487
			c-4.85,8.517-8.601,15.987-11.25,22.416c-0.339,0.847-0.762,1.271-1.269,1.271c-0.34,0-0.761-0.199-1.271-0.594
			c-1.298-0.902-2.425-1.973-3.383-3.214c-0.733-0.901-1.101-1.804-1.101-2.707c0-0.563,0.14-1.212,0.424-1.944
			C426.217,173.786,432.506,161.521,440.965,147.93z"/>
		<path fill="#B81F37" d="M475.901,163.156c2.989-0.282,5.216-0.424,6.684-0.424c1.805,0,3.072,0.479,3.809,1.438
			c1.014,1.299,1.747,2.426,2.198,3.385c0.169,0.395,0.254,0.731,0.254,1.014c0,0.621-0.423,0.988-1.27,1.102
			c-3.609,0.508-9.25,1.579-16.919,3.214c-1.13,2.257-2.791,5.556-4.991,9.897c4.399-0.848,8.63-1.27,12.688-1.27
			c1.974,0,3.412,0.479,4.315,1.438c1.915,2.087,2.876,3.693,2.876,4.822c0,0.677-0.565,1.1-1.692,1.269
			c-9.419,1.298-16.299,2.622-20.641,3.978c-1.071,0.338-1.918,0.506-2.537,0.506c-0.679,0-1.438-0.338-2.284-1.016
			c-1.466-1.127-2.481-2.029-3.046-2.705c-0.789-0.959-1.185-1.806-1.185-2.539c0-0.507,0.142-1.154,0.423-1.945
			c5.188-13.479,11.392-26.193,18.61-38.15c-0.846-2.312-1.269-3.777-1.269-4.398c0-0.901,0.62-1.522,1.859-1.861
			c7.105-1.805,15.341-2.706,24.701-2.706c2.144,0,3.808,0.592,4.991,1.776c0.846,0.846,1.72,2.283,2.622,4.313
			c0.056,0.282,0.085,0.536,0.085,0.761c0,0.791-0.649,1.241-1.945,1.354c-7.559,0.677-14.354,1.69-20.388,3.045
			C481.823,152.779,479.172,157.348,475.901,163.156z"/>
	</g>
	<g>
		<path fill="#B81F37" d="M176.895,193.271c-3.609,0.338-7.332-0.707-11.167-3.131c-4.963-3.102-7.443-6.879-7.443-11.336
			c0-1.578,0.282-3.3,0.846-5.16c1.804-5.865,5.216-12.266,10.236-19.203c5.356-7.33,10.602-12.435,15.734-15.312
			c2.368-1.353,4.398-2.03,6.09-2.03c3.158,0,6.739,2.004,10.744,6.006c0.958,0.961,1.438,2.258,1.438,3.893
			c0,0.902-0.143,1.891-0.423,2.961c-1.241,4.625-3.694,9.307-7.36,14.043c-0.621,0.79-1.213,1.186-1.776,1.186
			c-0.396,0-0.817-0.197-1.269-0.594c-0.903-0.789-1.946-1.917-3.13-3.384c-0.791-1.578-0.762-3.242,0.084-4.991
			c2.876-5.978,4.313-9.359,4.313-10.15c0-0.508-0.226-0.762-0.677-0.762c-1.241,0-3.44,1.579-6.598,4.736
			c-3.384,3.439-6.684,7.586-9.897,12.436c-5.357,8.121-8.037,14.776-8.037,19.965c0,2.426,0.789,3.638,2.369,3.638
			c1.804,0,4.314-1.101,7.528-3.3c3.215-2.198,6.314-4.934,9.306-8.204c0.677-0.731,1.27-1.101,1.776-1.101
			c0.451,0,0.846,0.311,1.185,0.93c0.789,1.468,1.185,2.736,1.185,3.809c0,2.706-1.833,5.836-5.499,9.389
			S179.602,193.045,176.895,193.271z"/>
		<path fill="#B81F37" d="M222.405,181.428c-5.921,0.621-11.957,1.664-18.103,3.131c-1.467,1.976-3.074,4.313-4.821,7.021
			c-0.677,1.071-1.269,1.606-1.776,1.606c-0.395,0-0.859-0.312-1.396-0.931c-0.536-0.621-1.198-1.522-1.988-2.707
			c-0.508-0.789-0.762-1.606-0.762-2.452c0-1.072,0.452-2.341,1.354-3.808c3.214-5.188,8.206-12.267,14.973-21.233
			c7.162-9.587,13.224-17.172,18.188-22.756c0.957-1.068,1.86-1.605,2.706-1.605c0.62,0,1.382,0.226,2.284,0.677
			c1.692,0.901,3.581,2.087,5.667,3.553c1.354,0.96,2.03,1.976,2.03,3.045c0,0.396-0.198,1.214-0.592,2.453
			c-5.527,16.863-9.108,31.244-10.743,43.144c-0.114,1.016-0.507,1.521-1.184,1.521c-0.283,0-0.649-0.084-1.101-0.253
			c-1.128-0.394-2.312-1.058-3.553-1.988c-1.241-0.931-1.776-2.382-1.607-4.356C221.982,185.376,222.123,184.021,222.405,181.428z
			 M210.986,175.252c5.019-0.73,9.276-1.238,12.773-1.521c1.578-8.346,3.438-15.705,5.583-22.08
			C223.533,158.812,217.415,166.682,210.986,175.252z"/>
		<path fill="#B81F37" d="M258.611,158.587c-6.147,10.998-11.674,22.222-16.581,33.669c-0.282,0.732-0.705,1.1-1.269,1.1
			c-0.733,0-1.662-0.506-2.791-1.521c-1.128-1.016-1.889-1.889-2.285-2.622c-0.676-1.187-0.815-2.368-0.422-3.554
			c1.806-5.301,5.131-12.913,9.982-22.842c4.229-8.739,8.232-16.438,12.012-23.094c0.62-1.07,1.409-1.605,2.369-1.605
			c0.451,0,1.042,0.113,1.775,0.338c2.145,0.734,4.483,2.061,7.021,3.977c0.899,0.676,1.354,1.494,1.354,2.453
			c0,0.452-0.113,1.297-0.338,2.537c-1.637,8.066-2.934,17.088-3.892,27.07c6.991-14.323,13.729-25.913,20.217-34.77
			c0.508-0.677,0.985-1.015,1.438-1.015c0.508,0,0.984,0.338,1.438,1.015c1.071,1.523,1.607,3.104,1.607,4.738
			c0,1.41-0.453,3.018-1.354,4.821c-3.213,6.204-6.401,12.38-9.558,18.526c-4.569,8.91-8.207,16.438-10.913,22.586
			c-0.508,1.129-1.215,1.69-2.115,1.69c-0.452,0-1.016-0.142-1.692-0.423c-1.859-0.789-3.679-1.818-5.455-3.087
			c-1.776-1.271-2.665-3.144-2.665-5.626C256.439,175.225,257.144,167.104,258.611,158.587z"/>
	</g>
</g>
<g id="Quality">
	<g>
		<path fill="#B81F37" d="M226.086,70c2.302-12.175,5.017-22.912,8.145-32.209c-8.475,10.449-17.399,21.926-26.778,34.43
			C214.773,71.152,220.984,70.412,226.086,70z"/>
		<path fill="#B81F37" d="M520,0H0.995l35.827,57.723L0.995,112.459H520L481.187,56.23L520,0z M124.032,46.799
			c-1.317,6.665-3.785,13.741-7.404,21.226c-4.608,9.544-9.996,17.113-16.167,22.707c3.456,2.798,6.417,5.594,8.885,8.392
			c0.494,0.574,0.741,1.11,0.741,1.604c0,1.562-2.304,2.345-6.911,2.345c-3.291,0-5.883-0.906-7.774-2.715
			c-1.48-1.399-2.674-2.551-3.579-3.455c-2.304,1.068-4.771,1.604-7.403,1.604c-2.389,0-4.855-0.453-7.405-1.357
			c-3.292-1.151-6.747-3.496-10.366-7.034c-3.621-3.536-5.43-7.898-5.43-13.082c0-3.042,0.577-6.54,1.728-10.489
			c2.139-7.485,6.313-15.713,12.526-24.681c6.211-8.966,12.566-15.753,19.066-20.362c3.62-2.549,7.033-3.826,10.242-3.826
			c2.55,0,5.061,0.783,7.528,2.345c3.702,2.387,6.664,4.896,8.885,7.528c2.386,2.88,3.579,6.911,3.579,12.094
			C124.772,41.863,124.525,44.25,124.032,46.799z M148.341,98.753c-2.221,0-4.608-0.454-7.157-1.358
			c-4.771-1.728-8.804-4.319-12.094-7.774c-2.302-2.468-3.456-5.758-3.456-9.873c0-2.796,0.536-6.251,1.604-10.366
			c1.562-5.841,5.265-13.902,11.107-24.188c6.17-10.86,12.051-19.292,17.647-25.298c1.067-1.151,1.932-1.728,2.592-1.728
			c0.657,0,1.419,0.494,2.283,1.481c0.863,0.987,1.993,2.634,3.394,4.936c0.74,1.153,1.111,2.387,1.111,3.702
			c0,1.811-0.741,3.826-2.223,6.047c-7.077,10.613-12.917,20.815-17.523,30.605c-4.279,9.215-6.417,15.796-6.417,19.745
			c0,2.141,0.78,3.209,2.345,3.209c4.277,0,10.817-5.8,19.622-17.4c10.037-13.409,19.539-30.439,28.507-51.09
			c0.575-1.315,1.358-1.975,2.345-1.975c0.658,0,1.358,0.29,2.099,0.864c1.314,0.987,3.002,2.675,5.06,5.06
			c1.234,2.058,1.315,4.609,0.247,7.651c-7.979,23.613-19.127,43.069-33.443,58.372C160.146,95.627,154.265,98.753,148.341,98.753z
			 M232.627,96.779c-0.412,0-0.946-0.124-1.604-0.37c-1.646-0.575-3.374-1.543-5.183-2.9c-1.811-1.357-2.591-3.474-2.345-6.355
			c0-0.164,0.205-2.138,0.616-5.923c-8.639,0.906-17.441,2.427-26.408,4.566c-2.141,2.881-4.484,6.294-7.034,10.243
			c-0.987,1.562-1.852,2.345-2.592,2.345c-0.574,0-1.253-0.453-2.036-1.357c-0.781-0.906-1.747-2.222-2.9-3.949
			c-0.741-1.151-1.109-2.345-1.109-3.579c0-1.562,0.658-3.414,1.974-5.554c4.688-7.568,11.97-17.894,21.843-30.975
			c10.447-13.985,19.292-25.052,26.533-33.196c1.397-1.562,2.715-2.345,3.949-2.345c0.903,0,2.015,0.33,3.332,0.987
			c2.468,1.317,5.224,3.045,8.269,5.183c1.974,1.4,2.962,2.88,2.962,4.442c0,0.577-0.29,1.77-0.864,3.579
			c-8.062,24.6-13.286,45.58-15.673,62.938C234.189,96.038,233.614,96.779,232.627,96.779z M290.752,31.03
			c-8.394,12.034-18.02,29.302-28.878,51.804c5.924-1.151,11.023-1.809,15.302-1.974c2.303-0.081,4.237,0.536,5.801,1.851
			c2.962,2.551,4.442,4.936,4.442,7.157c0,0.906-0.74,1.523-2.222,1.852c-6.829,1.317-16.043,3.375-27.644,6.17
			c-2.387,0.741-4.196,0.615-5.43-0.37c-1.234-0.989-2.962-2.596-5.184-4.821c-1.15-1.152-1.728-2.347-1.728-3.584
			c0-0.823,0.247-1.894,0.74-3.213c3.867-10.052,9.049-21.505,15.549-34.361c6.828-13.43,13.162-24.388,19.005-32.876
			c0.821-1.153,1.645-1.729,2.468-1.729c2.222,0,5.018,2.391,8.393,7.171c0.739,1.072,1.109,2.021,1.109,2.844
			C292.479,28.022,291.902,29.381,290.752,31.03z M306.301,96.9c-0.412,1.153-0.986,1.729-1.727,1.729
			c-0.247,0-0.494-0.042-0.741-0.124c-2.057-0.825-4.195-2.512-6.417-5.067c-1.068-1.153-1.604-2.389-1.604-3.708
			c0-0.824,0.247-1.936,0.74-3.338c3.292-9.475,8.35-20.969,15.179-34.482c6.665-13.018,12.998-24.058,19.006-33.123
			c0.821-1.234,1.686-1.853,2.592-1.853c0.739,0,1.645,0.453,2.716,1.359c2.467,2.145,4.317,4.08,5.553,5.81
			c0.74,1.072,1.11,2.019,1.11,2.842c0,0.989-0.576,2.389-1.729,4.201c-6.09,9.558-12.3,20.187-18.635,31.887
			C315.104,76.547,309.757,87.837,306.301,96.9z M385.279,32.484c-6.336,8.804-12.917,19.251-19.744,31.346
			c-7.076,12.423-12.548,23.323-16.413,32.703c-0.493,1.233-1.11,1.851-1.853,1.851c-0.492,0-1.108-0.289-1.851-0.864
			c-1.894-1.317-3.538-2.879-4.937-4.689c-1.069-1.315-1.604-2.632-1.604-3.949c0-0.822,0.204-1.769,0.617-2.838
			c6.004-15.96,15.179-33.854,27.52-53.682h-1.11c-6.09,0.166-11.106-1.809-15.056-5.923c-0.66-0.658-0.987-1.357-0.987-2.098
			c0-1.151,0.74-1.932,2.222-2.345c5.512-1.481,12.094-2.715,19.745-3.702c7.074-0.821,12.793-1.191,17.152-1.11
			c6.664,0.166,11.681,2.427,15.056,6.787c0.822,1.07,1.234,1.934,1.234,2.592c0,1.07-0.947,1.77-2.838,2.098
			c-0.823,0.166-6.171,0.824-16.043,1.974C386.061,31.292,385.69,31.909,385.279,32.484z M459.323,31.643
			c-13.986,12.773-25.712,24.801-35.171,36.089C417.9,79.103,413.087,88.825,409.715,96.9c-0.494,1.153-1.071,1.729-1.729,1.729
			c-0.493,0-1.109-0.289-1.851-0.864c-1.07-0.823-2.799-2.385-5.185-4.689c-0.986-1.151-1.479-2.385-1.479-3.702
			c0-0.904,0.204-1.932,0.616-3.085c2.963-7.732,6.704-16,11.229-24.805c-1.316-13.656-1.77-26.779-1.355-39.367
			c-0.167-2.221,0.526-3.332,2.076-3.332c0.98,0,2.51,0.494,4.589,1.48c2.078,0.988,3.566,1.852,4.466,2.592
			c1.632,1.317,2.567,3.539,2.812,6.664c0.247,3.868,0.619,9.956,1.115,18.264c11.881-11.646,23.518-21.517,34.906-29.612
			c0.904-0.825,1.689-1.24,2.352-1.24c1.319,0,1.98,1.772,1.98,5.314C464.26,25.463,462.613,28.594,459.323,31.643z"/>
		<path fill="#B81F37" d="M110.333,29.152c-2.388,0-6.006,2.428-10.859,7.281c-5.02,5.103-9.709,11.272-14.069,18.511
			C78.576,66.216,75.163,75.8,75.163,83.698c0,2.221,0.37,3.662,1.11,4.319c1.234,1.153,3.125,0.988,5.678-0.494
			c-2.305-1.974-3.456-3.249-3.456-3.825c0-0.575,0.371-0.987,1.109-1.234c2.796-0.904,5.595-0.863,8.393,0.124
			c3.948-4.113,8.103-9.913,12.464-17.4c8.062-13.985,12.094-24.681,12.094-32.086C112.555,30.469,111.814,29.152,110.333,29.152z"
			/>
	</g>
</g>
<g id="horizonal_lines">
	<line fill="none" stroke="#B81F37" stroke-width="3" x1="0" y1="124.402" x2="517.512" y2="124.402"/>
	<line fill="none" stroke="#B81F37" stroke-width="3" x1="0" y1="206.01" x2="517.512" y2="206.01"/>
	<line fill="none" stroke="#B81F37" stroke-width="3" x1="0" y1="213.973" x2="517.512" y2="213.973"/>
</g>
<g>
	<path fill="#B81F37" d="M510.18,140.58c0.96-1.44,2.17-2.59,3.63-3.45c1.46-0.859,2.971-1.29,4.53-1.29c1.38,0,2.66,0.36,3.84,1.08
		c2.06,1.26,3.09,3.271,3.09,6.03c0,2.12-0.63,4.2-1.89,6.24c-0.92,1.5-2.05,2.665-3.39,3.494c-1.341,0.831-2.74,1.245-4.2,1.245
		c-1.36,0-2.66-0.369-3.9-1.109c-2.359-1.42-3.54-3.56-3.54-6.42C508.35,144.36,508.96,142.42,510.18,140.58z M521.43,138.33
		c-0.68-0.42-1.43-0.63-2.25-0.63c-1.199,0-2.43,0.41-3.689,1.229c-1.181,0.78-2.171,1.751-2.971,2.91
		c-1.1,1.62-1.649,3.48-1.649,5.58c0,2.061,0.67,3.45,2.01,4.17c0.68,0.36,1.399,0.54,2.16,0.54c2.14,0,4.05-1.189,5.729-3.57
		c1.54-2.199,2.311-4.419,2.311-6.659C523.08,140.2,522.53,139.01,521.43,138.33z M515.34,141.33c-0.08-0.14-0.18-0.319-0.3-0.54
		c-0.18-0.36-0.11-0.57,0.21-0.63c1.06-0.48,2.34-0.72,3.84-0.72c1.3,0,2.21,0.7,2.73,2.1c0.159,0.44,0.239,0.851,0.239,1.229
		c0,0.74-0.35,1.44-1.05,2.101c-0.979,0.92-2.44,1.601-4.38,2.04c0.54,1.4,0.97,2.37,1.29,2.91c0.2,0.32,0.12,0.53-0.24,0.63
		c-0.2,0.06-0.38,0.09-0.54,0.09c-0.68,0-1.225-0.33-1.635-0.99s-0.806-1.51-1.185-2.55c-0.54,0.9-0.96,1.62-1.261,2.16
		c-0.2,0.38-0.42,0.43-0.659,0.149c-0.4-0.459-0.601-0.949-0.601-1.47c0-0.3,0.07-0.619,0.21-0.96
		C512.531,145.68,513.64,143.83,515.34,141.33z M515.611,144.99c1.579-0.48,2.839-1.05,3.779-1.71c0.78-0.54,1.13-0.95,1.051-1.23
		c-0.061-0.24-0.371-0.359-0.931-0.359c-0.479,0-1.07,0.09-1.77,0.27C517.26,142.62,516.55,143.63,515.611,144.99z"/>
</g>
</svg>
